<svg xmlns="http://www.w3.org/2000/svg" data-name="Group 1" viewBox="0 0 1920 700"><defs><linearGradient id="b" x1=".87" x2=".13" y1=".03" y2=".86" gradientUnits="objectBoundingBox"><stop offset="0" stop-color="#182030" stop-opacity=".74"/><stop offset="1" stop-color="#383d4a" stop-opacity=".74"/></linearGradient><linearGradient id="c" x1=".91" x2=".15" y1=".27" y2=".33" gradientUnits="objectBoundingBox"><stop offset="0" stop-color="#0c1017" stop-opacity=".25"/><stop offset="1" stop-color="#3b3e48" stop-opacity=".25"/></linearGradient><linearGradient id="d" x1=".88" x2=".16" y1=".21" y2=".92" gradientUnits="objectBoundingBox"><stop offset="0" stop-color="#1b2026" stop-opacity=".55"/><stop offset="1" stop-color="#373c43" stop-opacity=".24"/></linearGradient><clipPath id="a"><path fill="#fff" d="M0 0h1920v700H0z" data-name="Rectangle 2"/></clipPath></defs><g clip-path="url(#a)" data-name="Mask Group 1"><path fill="#292e38" d="M0 0h1920v700H0z" data-name="Path 5"/><path fill="url(#b)" d="M-32.03 405.08s263.77 395.65 599.14 84.78 444.17-108.8 595.37-145.07 243.04-150.73 318.4-350.44S-32.02-131.88-32.02-131.88z" data-name="Path 1" transform="translate(-95 -83)"/><path fill="rgba(53,58,70,0.74)" d="M-296.02 179.08s468.5 329.14 993.5 18.27 716.56-11.96 953.24-48.23 303.64-181.06 421.62-380.77S-296.02-357.88-296.02-357.88z" data-name="Path 3"/><path fill="url(#c)" d="M-39.9 280s266.78-488.66 602.14-177.8 499.35-36.26 650.55 0 192.73 167.67 268.1 367.38S-32.03 595.81-32.03 595.81z" data-name="Path 4" transform="translate(633 445)"/><path fill="url(#d)" d="M-32.03 405.08S287.61 819.1 660.98 508.24 1175.62 392.27 1343.95 356s320.51-288.18 404.42-487.89-1780.4 0-1780.4 0z" data-name="Path 2" transform="translate(-14 37)"/></g></svg>