<svg xmlns="http://www.w3.org/2000/svg" width="51.97" height="35.7" viewBox="0 0 51.97 35.7">
  <defs>
    <style>
      .cls-1 {
        fill: #d0a94c;
      }
    </style>
  </defs>
  <path id="LOGO-1" class="cls-1" d="M11.3-19.55V-29.6h8.6a6.024,6.024,0,0,1,4.05,1.175A4.758,4.758,0,0,1,25.3-24.65a4.981,4.981,0,0,1-1.35,3.9,5.938,5.938,0,0,1-4.05,1.2ZM3.45-35.7V0H11.3V-13.95h7.85a5.842,5.842,0,0,1,4.25,1.3,7.09,7.09,0,0,1,1.7,4.1q.3,2.15.45,4.5A13.841,13.841,0,0,0,26.35,0H34.2a5.254,5.254,0,0,1-.825-1.825,15.764,15.764,0,0,1-.4-2.275Q32.85-5.3,32.8-6.45t-.1-2a21.455,21.455,0,0,0-.375-2.7,9.078,9.078,0,0,0-.875-2.475,6.792,6.792,0,0,0-1.55-1.95A6.055,6.055,0,0,0,27.5-16.8v-.1a8.324,8.324,0,0,0,4.325-3.5,10.733,10.733,0,0,0,1.325-5.45,10.018,10.018,0,0,0-.725-3.825,9.224,9.224,0,0,0-2.1-3.125,9.954,9.954,0,0,0-3.3-2.125A11.492,11.492,0,0,0,22.7-35.7ZM38.44-21.42V0h2.85V-9.81H52.57V0h2.85V-21.42H52.57v9.21H41.29v-9.21Z" transform="translate(-3.45 35.7)"/>
</svg>
