<svg xmlns="http://www.w3.org/2000/svg" width="690" height="900" viewBox="0 0 690 900">
  <g id="Layer_2" data-name="Layer 2" transform="translate(-98.666)">
    <path id="Path_1" data-name="Path 1" d="M268.667,900,226,861.2,211.333,900Z" fill="#fe8b3b"/>
    <path id="Path_2" data-name="Path 2" d="M339.333,900,226,861.2,268.667,900Z" fill="#ff984d"/>
    <path id="Path_3" data-name="Path 3" d="M406.667,900,226,861.2,339.333,900Z" fill="#ffad4f"/>
    <path id="Path_4" data-name="Path 4" d="M235.333,646.67,220,666H204Z" fill="#ffad4f"/>
    <path id="Path_5" data-name="Path 5" d="M219.667,626.67l15.666,20L204,666Z" fill="#fc7535"/>
    <path id="Path_6" data-name="Path 6" d="M172.89,640.546l46.777-13.876L204,666Z" fill="#ffc567"/>
    <path id="Path_7" data-name="Path 7" d="M216.333,609.337,172.89,640.546l46.777-13.876Z" fill="#fe8b3b"/>
    <path id="Path_8" data-name="Path 8" d="M196.278,598.67,172.89,640.546l43.443-31.209Z" fill="#ffad4f"/>
    <path id="Path_9" data-name="Path 9" d="M142.983,609.337l53.295-10.667L172.89,640.546Z" fill="#ff984d"/>
    <path id="Path_10" data-name="Path 10" d="M130.111,591.952l66.167,6.718-53.295,10.667Z" fill="#fe8b3b"/>
    <path id="Path_11" data-name="Path 11" d="M118,566l54.89,22-42.779,3.948Z" fill="#f76b30"/>
    <path id="Path_12" data-name="Path 12" d="M194.611,588H172.89l23.389,10.666Z" fill="#ffc567"/>
    <path id="Path_13" data-name="Path 13" d="M104,528l33.333,3.337L118,566Z" fill="#f76b30"/>
    <path id="Path_14" data-name="Path 14" d="M169.631,517.337l-32.3,14L172.89,588Z" fill="#fc7535"/>
    <path id="Path_15" data-name="Path 15" d="M120,469.6l49.631,47.737-32.3,14Z" fill="#fe8b3b"/>
    <path id="Path_16" data-name="Path 16" d="M170.666,472.667l-1.036,44.67L194.611,510Z" fill="#fe8b3b"/>
    <path id="Path_17" data-name="Path 17" d="M194.611,510l25.056-7.334-49-30Z" fill="#fc7535"/>
    <path id="Path_18" data-name="Path 18" d="M226,552.67l-6.333-50L194.611,510Z" fill="#f76b30"/>
    <path id="Path_19" data-name="Path 19" d="M194.611,552.67V510L226,552.67Z" fill="#fe8b3b"/>
    <path id="Path_20" data-name="Path 20" d="M169.631,517.337l24.98,35.333L172.89,588Z" fill="#fdb24d"/>
    <path id="Path_21" data-name="Path 21" d="M194.611,588V552.67H226Z" fill="#fe8b3b"/>
    <path id="Path_22" data-name="Path 22" d="M226,588V552.67l-14.667,16.51Z" fill="#ff984d"/>
    <path id="Path_23" data-name="Path 23" d="M194.611,588H226l-9.667,21.333L196.278,598.67Z" fill="#fc7535"/>
    <path id="Path_24" data-name="Path 24" d="M219.667,626.67,240,619.607l-4.667,27.063Z" fill="#f76b30"/>
    <path id="Path_25" data-name="Path 25" d="M216.333,609.337,240,619.607l-20.333,7.063Z" fill="#fe8b3b"/>
    <path id="Path_26" data-name="Path 26" d="M226,588l14,31.6-23.667-10.271Z" fill="#ff984d"/>
    <path id="Path_27" data-name="Path 27" d="M226,552.67,242,588l-2,31.6L226,588Z" fill="#ff984d"/>
    <path id="Path_28" data-name="Path 28" d="M219.667,502.67,242,544.5V588L226,552.67Z" fill="#f76b30"/>
    <path id="Path_29" data-name="Path 29" d="M240,619.607l2-30.357L248.5,618l2.5,15.135V653.5l-15.667-6.83Z" fill="#ffad4f"/>
    <path id="Path_30" data-name="Path 30" d="M219.667,502.67,256,462l-85.334,10.667Z" fill="#fe8b3b"/>
    <path id="Path_31" data-name="Path 31" d="M161.626,436.093,256,462l-85.334,10.667Z" fill="#fed875"/>
    <path id="Path_32" data-name="Path 32" d="M148,374.669,256,462l-94.374-25.907Z" fill="#ffc567"/>
    <path id="Path_33" data-name="Path 33" d="M114.666,322.67l33.334,52-18-14Z" fill="#f13b23"/>
    <path id="Path_34" data-name="Path 34" d="M256,462l38-59L148,374.669Z" fill="#fe8b3b"/>
    <path id="Path_35" data-name="Path 35" d="M114.666,322.67l10.667-98-24.667,52.666-2,32Z" fill="#f13b23"/>
    <path id="Path_36" data-name="Path 36" d="M186.666,188.671l-72,134,10.667-98,28.667-28Z" fill="#f13b23"/>
    <path id="Path_37" data-name="Path 37" d="M222,89.338V169l-35.334,19.671-16-18,16.667-46,30-46.671Z" fill="#fff" opacity="0.1"/>
    <path id="Path_38" data-name="Path 38" d="M114.666,322.67h113.5l-41.5-134Z" fill="#f13b23"/>
    <path id="Path_39" data-name="Path 39" d="M148,374.669l80.166-52h-113.5Z" fill="#f76b30"/>
    <path id="Path_40" data-name="Path 40" d="M222,169l64,86.67-57.834,67-41.5-134Z" fill="#f76b30"/>
    <path id="Path_41" data-name="Path 41" d="M254.666,78,361,128,222,169Z" fill="#f76b30"/>
    <path id="Path_42" data-name="Path 42" d="M222,89.338V169l32.666-91V56Z" fill="#f13b23"/>
    <path id="Path_43" data-name="Path 43" d="M186.666,188.671l-16-18,16.667-46,30-46.671L222,89.338V169Z" fill="#f13b23"/>
    <path id="Path_44" data-name="Path 44" d="M319.333,60,361,128,254.666,78l58-47.329Z" fill="#f13b23"/>
    <path id="Path_45" data-name="Path 45" d="M400,12.671,361,128,319.333,60Z" fill="#f13b23"/>
    <path id="Path_46" data-name="Path 46" d="M432,0,400,12.671l31.333,6.667Z" fill="#f76b30"/>
    <path id="Path_47" data-name="Path 47" d="M554,30l-47,75L431.333,19.338,512,6.671Z" fill="#f13b23"/>
    <path id="Path_48" data-name="Path 48" d="M361,128,431.333,19.338,400,12.671Z" fill="#f13b23"/>
    <path id="Path_49" data-name="Path 49" d="M507,105,361,128,431.333,19.338Z" fill="#f13b23"/>
    <path id="Path_50" data-name="Path 50" d="M554,30l60,75H507Z" fill="#f13b23"/>
    <path id="Path_51" data-name="Path 51" d="M286,255.67,361,128,222,169Z" fill="#f76b30"/>
    <path id="Path_52" data-name="Path 52" d="M507,105v86.835L361,128Z" fill="#fc7535"/>
    <path id="Path_53" data-name="Path 53" d="M614,105,507,191.835V105Z" fill="#f76b30"/>
    <path id="Path_54" data-name="Path 54" d="M603.333,12.671,614,105,554,30Z" fill="#f13b23"/>
    <path id="Path_55" data-name="Path 55" d="M590,251l-83-59.165L614,105Z" fill="#ff984d"/>
    <path id="Path_56" data-name="Path 56" d="M691.333,138,590,251l24-146Z" fill="#fe8b3b"/>
    <path id="Path_57" data-name="Path 57" d="M690.667,96l-1.007,42,15.007-27.333Z" fill="#f13b23"/>
    <path id="Path_58" data-name="Path 58" d="M656.642,39.694,651.56,121.03,690.667,96Z" fill="#fc7535"/>
    <path id="Path_59" data-name="Path 59" d="M608.34,56,651.56,121.03,614,105Z" fill="#f76b30"/>
    <path id="Path_60" data-name="Path 60" d="M692.667,65.338,727,88.518l-22.333,22.154L690.667,96l6-6Z" fill="#f13b23"/>
    <path id="Path_61" data-name="Path 61" d="M761.333,154,590,251l99.66-113Z" fill="#f76b30"/>
    <path id="Path_62" data-name="Path 62" d="M286,255.67,339.333,297,228.166,322.67Z" fill="#fc7535"/>
    <path id="Path_63" data-name="Path 63" d="M294,403l-82.667-69.412L148,374.669Z" fill="#f76b30"/>
    <path id="Path_64" data-name="Path 64" d="M339.333,297,376,354l-82,49-65.834-80.33Z" fill="#ff984d"/>
    <path id="Path_65" data-name="Path 65" d="M286,255.67,376,261,361,128Z" fill="#ff984d"/>
    <path id="Path_66" data-name="Path 66" d="M507,191.835,376,261,361,128Z" fill="#fe8b3b"/>
    <path id="Path_67" data-name="Path 67" d="M590,251,376,261l131-69.165Z" fill="#ffd372"/>
    <path id="Path_68" data-name="Path 68" d="M339.333,297,376,261l-90-5.33Z" fill="#fe8b3b"/>
    <path id="Path_69" data-name="Path 69" d="M376,354V261l-36.667,36Z" fill="#fed875"/>
    <path id="Path_70" data-name="Path 70" d="M512,224.671l-86.157,10.013L507,191.835Z" fill="#ffc567"/>
    <path id="Path_71" data-name="Path 71" d="M590,251l-78-26.329-5-32.836Z" fill="#fdb24d"/>
    <path id="Path_72" data-name="Path 72" d="M425.843,234.684,512,224.671l-91.434,34.247L376,261Z" fill="#fdb24d"/>
    <path id="Path_73" data-name="Path 73" d="M376,354l44.566-95.082L376,261Z" fill="#ffd372"/>
    <path id="Path_74" data-name="Path 74" d="M294,403l45.333-106L228.166,322.67Z" fill="#fe8b3b"/>
    <path id="Path_75" data-name="Path 75" d="M681,255.67l-38.745-34.253L761.333,154Z" fill="#ff984d"/>
    <path id="Path_76" data-name="Path 76" d="M770.667,187.338,681,255.67,761.333,154l27.334,22Z" fill="#fdb24d"/>
    <path id="Path_77" data-name="Path 77" d="M754,218.671l-73,37,89.667-68.332,18,20.667Z" fill="#f76b30"/>
    <path id="Path_78" data-name="Path 78" d="M784,257.338l-30-38.667,18.667,82.666Z" fill="#f76b30"/>
    <path id="Path_79" data-name="Path 79" d="M755.333,302,754,218.671l18.667,82.666Z" fill="#f76b30"/>
    <path id="Path_80" data-name="Path 80" d="M732,286l22-67.333L755.333,302l-14.666-16.667Z" fill="#fe8b3b"/>
    <path id="Path_81" data-name="Path 81" d="M681,255.67,732,286l22-67.333Z" fill="#ff984d"/>
    <path id="Path_82" data-name="Path 82" d="M590,251l91,4.67L708.834,312Z" fill="#ffad4f"/>
    <path id="Path_83" data-name="Path 83" d="M420.566,258.918S529.333,298.667,525.333,297s-120.872-3.721-120.872-3.721Z" fill="#fdb24d"/>
    <path id="Path_84" data-name="Path 84" d="M376,354l154.5-58.5-126.039-2.221Z" fill="#ffad4f"/>
    <path id="Path_85" data-name="Path 85" d="M590,251l-64.667,46,183.5,15Z" fill="#fff" opacity="0.1"/>
    <path id="Path_86" data-name="Path 86" d="M738,379.337,708.834,312l8.666,67.337Z" fill="#fe8b3b"/>
    <path id="Path_87" data-name="Path 87" d="M525.333,297,717.5,379.337,708.834,312Z" fill="#fed875"/>
    <path id="Path_88" data-name="Path 88" d="M376,354l9,33-91,16Z" fill="#fc7535"/>
    <path id="Path_89" data-name="Path 89" d="M256,462l129-75-91,16Z" fill="#ff984d"/>
    <path id="Path_90" data-name="Path 90" d="M468.922,318.532,385,387l-9-33Z" fill="#fc7535"/>
    <path id="Path_91" data-name="Path 91" d="M497.824,307.5l-5.157,60.794L457,359l-6.334-25.574,18.256-14.894Z" fill="#fed875"/>
    <path id="Path_92" data-name="Path 92" d="M525.333,297l-32.666,71.294,5.157-60.794Z" fill="#fed875"/>
    <path id="Path_93" data-name="Path 93" d="M575.587,318.532l-82.92,49.762L525.333,297Z" fill="#ffc567"/>
    <path id="Path_94" data-name="Path 94" d="M629.95,341.825,492.667,368.294l82.92-49.762Z" fill="#fed875"/>
    <path id="Path_95" data-name="Path 95" d="M658.366,354l39.3,33-89.327,7,8.744-25.706Z" fill="#ffc567"/>
    <path id="Path_96" data-name="Path 96" d="M492.667,368.294H617.084L658.366,354,629.95,341.825Z" fill="#ffd372"/>
    <path id="Path_97" data-name="Path 97" d="M697.667,387l33,8.337,7.333-16Z" fill="#fed875"/>
    <path id="Path_98" data-name="Path 98" d="M740.667,425.335,723.417,403H681l-17,33.093V450l37.794-19L727,436.093Z" fill="#fc7535"/>
    <path id="Path_99" data-name="Path 99" d="M561.309,450,590,426.5,575.517,403H444l-39.539,15.335L367,454.38l-6,15.22L450.666,444,483,440l51.127,10Z" fill="#fc7535"/>
    <path id="Path_100" data-name="Path 100" d="M548.5,502.67l-23.167-48.29H483L425.843,469.6,404.461,495l-6.178,22.335H416l28,14h20.951L503,527.67l22.333-10.333Z" fill="#ff984d"/>
    <path id="Path_101" data-name="Path 101" d="M548.5,502.67,539,656.335,575.517,614,597,640.546Z" fill="#fff" opacity="0.1"/>
    <path id="Path_102" data-name="Path 102" d="M617.084,469.6,548.5,502.67,597,640.546Z" fill="#fe8b3b"/>
    <path id="Path_103" data-name="Path 103" d="M629.95,492.858,686,627.072V666l-22,19Z" fill="#ffd372"/>
    <path id="Path_104" data-name="Path 104" d="M539,656.335,568,685l61.95,9L664,685l-67-44.454L575.517,614Z" fill="#fdb24d"/>
    <path id="Path_105" data-name="Path 105" d="M617.084,469.6l12.866,23.259L664,685l-67-44.454Z" fill="#ffd372"/>
    <path id="Path_106" data-name="Path 106" d="M554,671.162h67.416L629.95,694,568,685Z" fill="#fff" opacity="0.1"/>
    <path id="Path_107" data-name="Path 107" d="M597,640.546l24.416,30.616H554Z" fill="#ffc567"/>
    <path id="Path_108" data-name="Path 108" d="M697.667,660,686,627.072V666Z" fill="#ffc567"/>
    <path id="Path_109" data-name="Path 109" d="M607.667,555.072l-59.84-52.4,68.584-33.07Z" fill="#ffc567"/>
    <path id="Path_110" data-name="Path 110" d="M597,640.546,642.255,566,664,685l-33.5-22.227Z" fill="#fff" opacity="0.1"/>
    <path id="Path_111" data-name="Path 111" d="M691.333,523l-33.358,36.965L629.95,492.858l28.416,24.479Z" fill="#fed875"/>
    <path id="Path_112" data-name="Path 112" d="M398.283,517.337,242,544.5l-22.333-41.83L256,462Z" fill="#fc7535"/>
    <path id="Path_113" data-name="Path 113" d="M385,387l-18,67.38L256,462Z" fill="#ffc567"/>
    <path id="Path_114" data-name="Path 114" d="M361,469.6l37.283,47.737L256,462l111-7.62Z" fill="#fdb24d"/>
    <path id="Path_115" data-name="Path 115" d="M404.461,418.335l36.783,28.355L444,403Z" fill="#ffad4f"/>
    <path id="Path_116" data-name="Path 116" d="M475.5,440.928,444,403l-2.756,43.69Z" fill="#ff984d"/>
    <path id="Path_117" data-name="Path 117" d="M490,403l-14.5,37.928L444,403Z" fill="#fe8b3b"/>
    <path id="Path_118" data-name="Path 118" d="M517.2,446.69,490,403l-14.5,37.928L483,440Z" fill="#fff" opacity="0.1"/>
    <path id="Path_119" data-name="Path 119" d="M534.127,450,560.5,403H490l27.2,43.69Z" fill="#f76b30"/>
    <path id="Path_120" data-name="Path 120" d="M575.517,403,590,426.5,561.309,450l-.809-47Z" fill="#ffc567"/>
    <path id="Path_121" data-name="Path 121" d="M398.283,517.337l27.56-47.737L416,517.337Z" fill="#fff" opacity="0.1"/>
    <path id="Path_122" data-name="Path 122" d="M525.333,454.38,503,527.67l-81.575-36.645,4.418-21.426Z" fill="#fe8b3b"/>
    <path id="Path_123" data-name="Path 123" d="M548.5,502.67,518.294,477.48l-7.853,25.77Z" fill="#f76b30"/>
    <path id="Path_124" data-name="Path 124" d="M458.372,507.622,512,500.469l-9,27.2Z" fill="#fff" opacity="0.1"/>
    <path id="Path_125" data-name="Path 125" d="M480,469.6l-6.621,30.869-51.954-9.443,4.418-21.426Z" fill="#fff" opacity="0.1"/>
    <path id="Path_126" data-name="Path 126" d="M518.294,477.48,480,469.6l45.333-15.22Z" fill="#fff" opacity="0.1"/>
    <path id="Path_127" data-name="Path 127" d="M473.379,500.469H512l-53.628,7.153-36.947-16.6Z" fill="#fe8b3b"/>
    <path id="Path_128" data-name="Path 128" d="M416,517.337l42.372-9.715L444,531.337Z" fill="#fc7535"/>
    <path id="Path_129" data-name="Path 129" d="M468.922,530.954l-10.55-23.332L503,527.67Z" fill="#fff" opacity="0.1"/>
    <path id="Path_130" data-name="Path 130" d="M512,500.469,480,469.6l38.294,7.881Z" fill="#ffd372"/>
    <path id="Path_131" data-name="Path 131" d="M473.379,500.469,425.843,469.6H480Z" fill="#fc7535"/>
    <path id="Path_132" data-name="Path 132" d="M404.461,418.335,385,387l-18,67.38Z" fill="#ff984d"/>
    <path id="Path_133" data-name="Path 133" d="M457,359l-13,44-28-41.291,34.666-28.283Z" fill="#ff984d"/>
    <path id="Path_134" data-name="Path 134" d="M492.667,368.294,490,403H444l13-44Z" fill="#ff984d"/>
    <path id="Path_135" data-name="Path 135" d="M560.5,403l-12-34.706H492.667L490,403Z" fill="#ffd372"/>
    <path id="Path_136" data-name="Path 136" d="M617.084,368.294,608.34,394,590,426.5,575.517,403Z" fill="#fed875"/>
    <path id="Path_137" data-name="Path 137" d="M548.5,368.294,575.517,403l41.567-34.706Z" fill="#fed875"/>
    <path id="Path_138" data-name="Path 138" d="M490,403l58.5-34.706L560.5,403Z" fill="#ffc567"/>
    <path id="Path_139" data-name="Path 139" d="M561.309,450l55.775,19.6L548.5,502.67,534.127,450Z" fill="#f76b30"/>
    <path id="Path_140" data-name="Path 140" d="M525.333,454.38l8.794-4.38L548.5,502.67Z" fill="#fe8b3b"/>
    <path id="Path_141" data-name="Path 141" d="M425.843,469.6H361l37.283,47.737L404.461,495Z" fill="#ffc567"/>
    <path id="Path_142" data-name="Path 142" d="M441.244,446.69l-15.4,22.91H361Z" fill="#fed875"/>
    <path id="Path_143" data-name="Path 143" d="M483,454.38l-7.5-13.452-34.256,5.762-15.4,22.91Z" fill="#ffd372"/>
    <path id="Path_144" data-name="Path 144" d="M525.333,454.38l-8.13-7.69L483,440l-7.5.928L483,454.38Z" fill="#fed875"/>
    <path id="Path_145" data-name="Path 145" d="M534.127,450,517.2,446.69l8.13,7.69Z" fill="#f13b23"/>
    <path id="Path_146" data-name="Path 146" d="M590,426.5l27.084,43.1L561.309,450Z" fill="#ffc567"/>
    <path id="Path_147" data-name="Path 147" d="M548.5,502.67,561.309,450l55.775,19.6Z" fill="#fff" opacity="0.1"/>
    <path id="Path_148" data-name="Path 148" d="M617.084,469.6,608.34,394l33.915,68Z" fill="#fff" opacity="0.1"/>
    <path id="Path_149" data-name="Path 149" d="M653,390.5,681,403l-17,33.093Z" fill="#ffd372"/>
    <path id="Path_150" data-name="Path 150" d="M642.255,462,664,450V436.093L653,390.5,608.34,394Z" fill="#ffc567"/>
    <path id="Path_151" data-name="Path 151" d="M681,403l20.794,28L664,450V436.093Z" fill="#fe8b3b"/>
    <path id="Path_152" data-name="Path 152" d="M723.417,403l-21.623,28L727,436.093l13.667-10.757Z" fill="#f76b30"/>
    <path id="Path_153" data-name="Path 153" d="M658.366,517.337l60.3-16.67,6-35.333-22.873-14.8L664,450l-27.83,27.48-6.22,15.378Z" fill="#fc7535"/>
    <path id="Path_154" data-name="Path 154" d="M657.975,559.965l.392-42.628L691.333,523Z" fill="#ffc567"/>
    <path id="Path_155" data-name="Path 155" d="M718.667,500.667,708.834,479.5,629.95,492.858l28.416,24.479Z" fill="#ffad4f"/>
    <path id="Path_156" data-name="Path 156" d="M724.667,465.334,708.834,479.5l-7.04-28.965Z" fill="#fff" opacity="0.1"/>
    <path id="Path_157" data-name="Path 157" d="M664,450l18.9,15.93L667,486.584l-30.832-9.1Z" fill="#f76b30"/>
    <path id="Path_158" data-name="Path 158" d="M701.794,450.535,682.9,465.93l25.938,13.57Z" fill="#ffd372"/>
    <path id="Path_159" data-name="Path 159" d="M686,627.072l-33-7.465,4.971-59.643Z" fill="#fed875"/>
    <path id="Path_160" data-name="Path 160" d="M642.255,566l15.72-6.035L630.846,495Z" fill="#ffc567"/>
    <path id="Path_161" data-name="Path 161" d="M607.667,555.072,642.255,566l-12.3-73.142L617.084,469.6Z" fill="#fdb24d"/>
    <path id="Path_162" data-name="Path 162" d="M597,640.546l56-20.938L642.255,566Z" fill="#ffc567"/>
    <path id="Path_163" data-name="Path 163" d="M691.333,523l27.334-22.333-60.3,16.67Z" fill="#fdb24d"/>
    <path id="Path_164" data-name="Path 164" d="M657.975,559.965,737.333,574l-46-51Z" fill="#fed875"/>
    <path id="Path_165" data-name="Path 165" d="M636.17,477.48l-6.22,15.378L667,486.584Z" fill="#fff" opacity="0.1"/>
    <path id="Path_166" data-name="Path 166" d="M617.084,469.6l25.171-7.6L608.34,394Z" fill="#fed875"/>
    <path id="Path_167" data-name="Path 167" d="M664,450l-21.745,12-6.085,15.48Z" fill="#f13b23"/>
    <path id="Path_168" data-name="Path 168" d="M617.084,469.6l12.866,23.259L642.255,462Z" fill="#fe8b3b"/>
    <path id="Path_169" data-name="Path 169" d="M591.975,514.069,548.5,502.67l68.584-33.07Z" fill="#f76b30"/>
    <path id="Path_170" data-name="Path 170" d="M607.667,555.072l-15.692-41,24.288-43.015Z" fill="#ff984d"/>
    <path id="Path_171" data-name="Path 171" d="M573.591,574l34.076-18.927L548.5,502.67Z" fill="#fdb24d"/>
    <path id="Path_172" data-name="Path 172" d="M575.517,614,548.5,502.67,539,656.335Z" fill="#fc7535"/>
    <path id="Path_173" data-name="Path 173" d="M597,640.546,548.5,502.67,575.517,614Z" fill="#ff984d"/>
    <path id="Path_174" data-name="Path 174" d="M554,671.162,575.517,614,597,640.546Z" fill="#ffd372"/>
    <path id="Path_175" data-name="Path 175" d="M629.95,694l-8.534-22.838L597,640.546,664,685Z" fill="#fc7535"/>
    <path id="Path_176" data-name="Path 176" d="M554,671.162h67.416L629.95,694,568,685Z" fill="#f13b23"/>
    <path id="Path_177" data-name="Path 177" d="M737.333,574,686,627.072l-28.025-67.108Z" fill="#fff" opacity="0.1"/>
    <path id="Path_178" data-name="Path 178" d="M730.667,636.666l-33,23.334L686,627.072,737.333,574Z" fill="#fff" opacity="0.1"/>
    <path id="Path_179" data-name="Path 179" d="M718.667,695.2l-21-35.2,33-23.334Z" fill="#ffad4f"/>
    <path id="Path_180" data-name="Path 180" d="M664,685l24.517,15.666L697.667,660,686,666Z" fill="#ffc567"/>
    <path id="Path_181" data-name="Path 181" d="M718.667,695.2l-30.15,5.469L697.667,660Z" fill="#ffd372"/>
    <path id="Path_182" data-name="Path 182" d="M242,588l110-1.865,46.283-68.8L242,544.5Z" fill="#fe8b3b"/>
    <path id="Path_183" data-name="Path 183" d="M251,653.5h88.5L352,586.139,242,588v12.641L248.5,618l2.5,15.135Z" fill="#ff984d"/>
    <path id="Path_184" data-name="Path 184" d="M398.283,517.337,385,653.5H339.5L352,586.139Z" fill="#ffc567"/>
    <path id="Path_185" data-name="Path 185" d="M416,517.337,385,653.5l13.283-136.163Z" fill="#fed875"/>
    <path id="Path_186" data-name="Path 186" d="M444,531.337,480,654,468.922,530.954Z" fill="#ffd372"/>
    <path id="Path_187" data-name="Path 187" d="M503,527.67,480,655.854l-11.078-124.9Z" fill="#ffc567"/>
    <path id="Path_188" data-name="Path 188" d="M411.22,538.334l32.78-7-28-14Z" fill="#ffc567"/>
    <path id="Path_189" data-name="Path 189" d="M398.283,595.155,480,654,444,531.337Z" fill="#ffd372"/>
    <path id="Path_190" data-name="Path 190" d="M411.22,538.334l-12.936,56.821L444,531.337Z" fill="#ffc567"/>
    <path id="Path_191" data-name="Path 191" d="M385,653.5l54.142,12.432-40.858-70.776Z" fill="#fe8b3b"/>
    <path id="Path_192" data-name="Path 192" d="M251,653.5,220,666l15.333-19.33Z" fill="#fdb24d"/>
    <path id="Path_193" data-name="Path 193" d="M220,706l31-52.5L220,666Z" fill="#fdb24d"/>
    <path id="Path_194" data-name="Path 194" d="M236,778l15-124.5L220,706Z" fill="#ffd372"/>
    <path id="Path_195" data-name="Path 195" d="M226,861.2l71-74.95L236,778Z" fill="#ffd372"/>
    <path id="Path_196" data-name="Path 196" d="M304,861.2H226l71-74.95Z" fill="#ffc567"/>
    <path id="Path_197" data-name="Path 197" d="M399.25,861.2,342.75,828,304,793.25l-7-7,7,74.95Z" fill="#fe8b3b"/>
    <path id="Path_198" data-name="Path 198" d="M406.667,900l-5.917-38.8H304l35.333,24.34Z" fill="#fe8b3b"/>
    <path id="Path_199" data-name="Path 199" d="M297,786.25,251,653.5,236,778Z" fill="#fed875"/>
    <path id="Path_200" data-name="Path 200" d="M339.5,653.5,297,786.25,251,653.5Z" fill="#fdb24d"/>
    <path id="Path_201" data-name="Path 201" d="M385,653.5l15.75,207.7-58-33.2Z" fill="#fff" opacity="0.1"/>
    <path id="Path_202" data-name="Path 202" d="M297,786.25,385,653.5,342.75,828Z" fill="#fe8b3b"/>
    <path id="Path_203" data-name="Path 203" d="M406.667,900l-5.917-38.8L534.127,900H625.3" fill="#f76b30"/>
    <path id="Path_204" data-name="Path 204" d="M604.119,900,664,856l27.333-94Z" fill="#fe8b3b"/>
    <path id="Path_205" data-name="Path 205" d="M604.119,900h38.136L664,856Z" fill="#f76b30"/>
    <path id="Path_206" data-name="Path 206" d="M664,856l13.666,44H642.255Z" fill="#f13b23"/>
    <path id="Path_207" data-name="Path 207" d="M439.142,665.932l61.274,91.418L400.75,861.2,385,653.5Z" fill="#fe8b3b"/>
    <path id="Path_208" data-name="Path 208" d="M539,656.335,503,527.67l45.5-25Z" fill="#fdb24d"/>
    <path id="Path_209" data-name="Path 209" d="M500.416,757.35,548.5,750l53-9.25L617.084,752l19.086-15.5h21.8L669.5,731l11.5-5.5-6.346,20L629.95,798l-13.687-3.331L591.975,802Z" fill="#f13b23"/>
    <path id="Path_210" data-name="Path 210" d="M400.75,861.2,591.975,802l-91.559-44.65Z" fill="#ffad4f"/>
    <path id="Path_211" data-name="Path 211" d="M480.685,654,601.5,740.75,568,685l-14-13.838-15-14.827Z" fill="#fc7535"/>
    <path id="Path_212" data-name="Path 212" d="M629.95,694l6.22,42.5L617.084,752Z" fill="#ff984d"/>
    <path id="Path_213" data-name="Path 213" d="M657,736.5l7-51.5-34.05,9Z" fill="#ffc567"/>
    <path id="Path_214" data-name="Path 214" d="M681,725.5l7.517-24.834L664,685Z" fill="#fed875"/>
    <path id="Path_215" data-name="Path 215" d="M718.667,695.2,681,725.5l7.517-24.834Z" fill="#ff984d"/>
    <path id="Path_216" data-name="Path 216" d="M691.333,762,681,725.5l17,29.831Z" fill="#f76b30"/>
    <path id="Path_217" data-name="Path 217" d="M710.667,726,681,725.5l17,29.831Z" fill="#fe8b3b"/>
    <path id="Path_218" data-name="Path 218" d="M629.95,798l-12.866-36-.821,32.672Z" fill="#fdb24d"/>
    <path id="Path_219" data-name="Path 219" d="M597,765.5,591.975,802l24.288-7.331Z" fill="#ffc567"/>
    <path id="Path_220" data-name="Path 220" d="M564.056,788.385,597,765.5,591.975,802Z" fill="#fed875"/>
    <path id="Path_221" data-name="Path 221" d="M521.448,767.606l19.645-16.475-40.677,6.218Z" fill="#f13b23"/>
    <path id="Path_222" data-name="Path 222" d="M561.309,763.75l-20.216-12.618-19.645,16.475Z" fill="#fc7535"/>
    <path id="Path_223" data-name="Path 223" d="M601.5,740.75l-40.191,23-20.216-12.618Z" fill="#f13b23"/>
    <path id="Path_224" data-name="Path 224" d="M617.084,752l-55.775,11.75,40.191-23Z" fill="#f76b30"/>
    <path id="Path_225" data-name="Path 225" d="M636.17,736.5l6.085,9.5-25.171,6Z" fill="#fff" opacity="0.1"/>
    <path id="Path_226" data-name="Path 226" d="M657,736.5l17.654,9,6.346-20Z" fill="#fff" opacity="0.1"/>
    <path id="Path_227" data-name="Path 227" d="M642.255,746,657,737l-20.83-.5Z" fill="#fff" opacity="0.1"/>
    <path id="Path_228" data-name="Path 228" d="M644.5,753.334,674.228,746,657,737Z" fill="#fff" opacity="0.1"/>
    <path id="Path_229" data-name="Path 229" d="M617.084,752l27.416,1.334L642.255,746Z" fill="#fff" opacity="0.1"/>
    <path id="Path_230" data-name="Path 230" d="M629.95,798l13.717-44,19.178,5.368Z" fill="#fed875"/>
    <path id="Path_231" data-name="Path 231" d="M617.084,762V752l26.583,2L629.95,798Z" fill="#fdb24d"/>
    <path id="Path_232" data-name="Path 232" d="M597,765.5l20.04-1.75-.777,30.919Z" fill="#ffc567"/>
    <path id="Path_233" data-name="Path 233" d="M561.309,763.75l2.747,24.635-42.607-20.778Z" fill="#f76b30"/>
    <path id="Path_234" data-name="Path 234" d="M597,765.5l-35-1.75,2.056,24.635Z" fill="#fc7535"/>
    <path id="Path_235" data-name="Path 235" d="M500.416,757.35,480,654l-81.717-58.845,40.858,70.776Z" fill="#fdb24d"/>
    <path id="Path_236" data-name="Path 236" d="M528.4,718l-27.984,39.35L601.5,740.75Z" fill="#fe8b3b"/>
    <path id="Path_237" data-name="Path 237" d="M480,654l48.4,64-27.984,39.35Z" fill="#fe8b3b"/>
    <path id="Path_238" data-name="Path 238" d="M601.5,740.75,480,653.5l47.667,66.857Z" fill="#fed875"/>
    <path id="Path_239" data-name="Path 239" d="M629.95,694l-42.242,23.8L568,685Z" fill="#f76b30"/>
    <path id="Path_240" data-name="Path 240" d="M617.084,752l-10.065-45.082L629.95,694Z" fill="#fc7535"/>
    <path id="Path_241" data-name="Path 241" d="M601.5,740.75l5.519-33.832L617.084,752Z" fill="#fe8b3b"/>
    <path id="Path_242" data-name="Path 242" d="M385,653.5,500.416,757.35,400.75,861.2Z" fill="#fff" opacity="0.1"/>
    <path id="Path_243" data-name="Path 243" d="M561.309,884.664,400.75,861.2,591.975,802Z" fill="#fc7535"/>
    <path id="Path_244" data-name="Path 244" d="M691.333,762l-28.488-2.628L674.228,746Z" fill="#ffc567"/>
    <path id="Path_245" data-name="Path 245" d="M681,725.5,674.228,746l17.1,16Z" fill="#ffc567"/>
    <path id="Path_246" data-name="Path 246" d="M591.975,802l37.976-4-13.687-3.331Z" fill="#f13b23"/>
    <path id="Path_247" data-name="Path 247" d="M662.845,759.369,646.4,833.1,629.95,798Z" fill="#ff984d"/>
    <path id="Path_248" data-name="Path 248" d="M585.445,819.6l30.817,22.05L629.95,798l-37.976,4Z" fill="#fe8b3b"/>
    <path id="Path_249" data-name="Path 249" d="M646.4,833.1l-30.135,8.549L629.95,798Z" fill="#ff984d"/>
    <path id="Path_250" data-name="Path 250" d="M561.309,884.664,604.119,900H534.127Z" fill="#fc7535"/>
    <path id="Path_251" data-name="Path 251" d="M616.263,841.649,604.119,900l-18.674-80.4Z" fill="#ffd372"/>
    <path id="Path_252" data-name="Path 252" d="M521.448,767.606,400.75,861.2,500.416,757.35Z" fill="#fdb24d"/>
    <path id="Path_253" data-name="Path 253" d="M564.056,788.385,400.75,861.2l120.7-93.594Z" fill="#ffc567"/>
    <path id="Path_254" data-name="Path 254" d="M393.028,759.369l107.388-2.019L400.75,861.2Z" fill="#fff" opacity="0.1"/>
    <path id="Path_255" data-name="Path 255" d="M385,653.5l52.186,105.039-44.158.83Z" fill="#fff" opacity="0.1"/>
    <path id="Path_256" data-name="Path 256" d="M466.713,727.023l-29.527,31.516,63.23-1.19Z" fill="#fff" opacity="0.1"/>
    <path id="Path_257" data-name="Path 257" d="M385,653.5l81.713,73.523-29.527,31.516Z" fill="#ff984d"/>
    <path id="Path_258" data-name="Path 258" d="M400.75,861.2l36.436-102.661,63.23-1.19Z" fill="#fc7535"/>
    <path id="Path_259" data-name="Path 259" d="M393.028,759.369,342.75,828l58,33.85Z" fill="#f76b30"/>
    <path id="Path_260" data-name="Path 260" d="M297,786.25l60.882-20.75L342.75,828Z" fill="#fff" opacity="0.1"/>
    <path id="Path_261" data-name="Path 261" d="M393.028,759.369,357.882,765.5,342.75,828Z" fill="#fe8b3b"/>
    <path id="Path_262" data-name="Path 262" d="M385,653.5l-27.118,112,35.146-6.131Z" fill="#fe8b3b"/>
    <path id="Path_263" data-name="Path 263" d="M251,653.5l101-67.361L339.5,653.5Z" fill="#fc7535"/>
    <path id="Path_264" data-name="Path 264" d="M561.309,884.664,504.2,829.174,400.75,861.2Z" fill="#ff984d"/>
    <path id="Path_265" data-name="Path 265" d="M352,586.139,242,544.5V588Z" fill="#fe8b3b"/>
    <path id="Path_266" data-name="Path 266" d="M389.9,603.273,339.5,653.5,352,586.139Z" fill="#ffc567"/>
    <path id="Path_267" data-name="Path 267" d="M398.283,517.337,352,586.139l37.9,17.135Z" fill="#fc7535"/>
    <path id="Path_268" data-name="Path 268" d="M256,462l26.667,75.432L242,544.5Z" fill="#fe8b3b"/>
    <path id="Path_269" data-name="Path 269" d="M304,861.2l38.75-32.026,58,32.026Z" fill="#fe8b3b"/>
    <path id="Path_270" data-name="Path 270" d="M266.146,697.208,339.5,653.5,297,786.25Z" fill="#ffd372"/>
    <path id="Path_271" data-name="Path 271" d="M629.67,662.222,653,619.607l-56,20.938Z" fill="#fff" opacity="0.1"/>
    <path id="Path_272" data-name="Path 272" d="M686,627.072l-27.165,28.781L686,666Z" fill="#ff984d"/>
    <path id="Path_273" data-name="Path 273" d="M704.667,607.773l-46.692-47.808L737.333,574Z" fill="#ffd372"/>
    <path id="Path_274" data-name="Path 274" d="M686,627.072l-28.025-67.108,46.692,47.808Z" fill="#fed875"/>
    <path id="Path_275" data-name="Path 275" d="M730.667,636.666l-26-28.893L737.333,574Z" fill="#ffd372"/>
    <path id="Path_276" data-name="Path 276" d="M697.667,660l7-52.227,26,28.893Z" fill="#fdb24d"/>
    <path id="Path_277" data-name="Path 277" d="M686,627.072l18.667-19.3-7,52.227Z" fill="#fed875"/>
    <path id="Path_278" data-name="Path 278" d="M653,390.5,642.255,462,608.34,394Z" fill="#ffc567"/>
    <path id="Path_279" data-name="Path 279" d="M697.667,387,681,403l-28-12.5Z" fill="#ffd372"/>
    <path id="Path_280" data-name="Path 280" d="M730.667,395.337,723.417,403l17.25,22.335Z" fill="#f13b23"/>
    <path id="Path_281" data-name="Path 281" d="M658.366,354l50.468-42L629.95,341.825Z" fill="#fed875"/>
    <path id="Path_282" data-name="Path 282" d="M717.5,379.337,658.366,354l50.468-42Z" fill="#fdb24d"/>
    <path id="Path_283" data-name="Path 283" d="M575.587,318.532,614,304.248l15.95,37.577Z" fill="#ffc567"/>
    <path id="Path_284" data-name="Path 284" d="M590,251l24,53.248L525.333,297Z" fill="#ffc567"/>
    <path id="Path_285" data-name="Path 285" d="M708.834,312,590,251l24,53.248Z" fill="#ffc567"/>
    <path id="Path_286" data-name="Path 286" d="M385,653.5H339.5L297,786.25Z" fill="#fdb24d"/>
    <path id="Path_287" data-name="Path 287" d="M480,654l23-126.33,36,128.665Z" fill="#ffd372"/>
    <path id="Path_288" data-name="Path 288" d="M137.333,531.337,120,469.6,104,528Z" fill="#fc7535"/>
    <path id="Path_289" data-name="Path 289" d="M169.631,517.337l1.036-44.67L142.983,454.38,120,469.6Z" fill="#ff984d"/>
    <path id="Path_290" data-name="Path 290" d="M172.89,588,118,566l19.333-34.663Z" fill="#ff984d"/>
    <path id="Path_291" data-name="Path 291" d="M194.611,552.67V510l-24.98,7.333Z" fill="#fc7535"/>
    <path id="Path_292" data-name="Path 292" d="M194.611,588H172.89l21.722-35.334Z" fill="#f13b23"/>
    <path id="Path_293" data-name="Path 293" d="M211.333,569.18,194.611,588H226Z" fill="#f76b30"/>
    <path id="Path_294" data-name="Path 294" d="M196.278,598.67,172.89,588l-42.779,3.948Z" fill="#fc7535"/>
    <path id="Path_295" data-name="Path 295" d="M228.166,322.67l-16.833,10.918L294,403Z" fill="#fe8b3b"/>
    <path id="Path_296" data-name="Path 296" d="M404.461,418.335,385,387l31-25.291L444,403Z" fill="#fe8b3b"/>
    <path id="Path_297" data-name="Path 297" d="M560.5,403l-12-34.706L575.517,403Z" fill="#fed875"/>
    <path id="Path_298" data-name="Path 298" d="M420.566,258.918,590,251l-64.667,46Z" fill="#ffc567"/>
    <path id="Path_299" data-name="Path 299" d="M642.255,221.418,590,251l91,4.67Z" fill="#fe8b3b"/>
    <path id="Path_300" data-name="Path 300" d="M603.333,12.671l53.309,27.022L651.56,121.03,608.34,56Z" fill="#fc7535"/>
    <path id="Path_301" data-name="Path 301" d="M689.66,138l-38.1-16.975L690.667,96Z" fill="#f13b23"/>
    <path id="Path_302" data-name="Path 302" d="M692.667,65.338,656.642,39.694,690.667,96l6-6Z" fill="#f76b30"/>
    <path id="Path_303" data-name="Path 303" d="M732,286l6,93.333L681,255.67Z" fill="#f76b30"/>
    <path id="Path_304" data-name="Path 304" d="M697.667,387l-39.3-33L717.5,379.337H738Z" fill="#fed875"/>
    <path id="Path_305" data-name="Path 305" d="M681,403h42.417l7.25-7.663-33-8.337Z" fill="#fed875"/>
    <path id="Path_306" data-name="Path 306" d="M608.34,394,590,426.5l27.084,43.1Z" fill="#ffd372"/>
    <path id="Path_307" data-name="Path 307" d="M601.5,740.75,587.708,717.8l19.311-10.88Z" fill="#fc7535"/>
    <path id="Path_308" data-name="Path 308" d="M636.17,736.5,629.95,694,657,737Z" fill="#ffad4f"/>
    <path id="Path_309" data-name="Path 309" d="M664,685l-6.864,50.5L681,725.5Z" fill="#ffd372"/>
    <path id="Path_310" data-name="Path 310" d="M561.309,884.664,585.445,819.6,604.119,900Z" fill="#ffc567"/>
    <path id="Path_311" data-name="Path 311" d="M616.263,841.649,646.4,833.1,604.119,900Z" fill="#ffd372"/>
    <path id="Path_312" data-name="Path 312" d="M691.333,762,646.4,833.1l16.447-73.732Z" fill="#fdb24d"/>
    <path id="Path_313" data-name="Path 313" d="M710.667,726l8-30.8L681,725.5Z" fill="#fe8b3b"/>
    <path id="Path_314" data-name="Path 314" d="M718.667,500.667,737.333,574l-46-51Z" fill="#fed875"/>
    <path id="Path_315" data-name="Path 315" d="M724.667,465.334l16-40L727,436.093,701.794,431,664,450l37.794.535Z" fill="#f76b30"/>
    <path id="Path_316" data-name="Path 316" d="M339.333,885.54,304,861.2H226Z" fill="#ffc567"/>
    <path id="Path_317" data-name="Path 317" d="M534.127,900l27.182-15.336L400.75,861.2Z" fill="#ffc567"/>
  </g>
</svg>
